<svg width="120" height="120" viewBox="0 0 120 120" fill="none" xmlns="http://www.w3.org/2000/svg">
<rect x="3.15" y="3.15" width="113.7" height="113.7" fill="#1E1E1E" stroke="#55FFAA" stroke-width="6.3"/>
<path d="M30.744 62.64C30.584 63.888 30.152 64.8 29.448 65.376C28.744 65.952 27.832 66.24 26.712 66.24C25.512 66.24 24.536 65.944 23.784 65.352C23.048 64.744 22.68 63.88 22.68 62.76V57.384H21.144V55.176H22.68V51.888H25.776V55.176H29.664V57.384H25.776V62.232C25.776 63.176 26.208 63.648 27.072 63.648C27.264 63.648 27.52 63.568 27.84 63.408C28.176 63.232 28.392 62.744 28.488 61.944L30.744 62.64ZM32.1945 55.944C33.1385 55.56 33.9225 55.304 34.5465 55.176C35.1865 55.032 35.9465 54.96 36.8265 54.96C37.9945 54.96 39.0025 55.264 39.8505 55.872C40.6985 56.48 41.1225 57.4 41.1225 58.632V63.336C41.1225 63.896 41.3705 64.176 41.8665 64.176C42.0105 64.176 42.1625 64.152 42.3225 64.104L42.3465 65.736C41.7225 66.072 41.0745 66.24 40.4025 66.24C38.9785 66.24 38.1865 65.528 38.0265 64.104V64.08C37.7225 64.624 37.2825 65.12 36.7065 65.568C36.1465 66.016 35.4265 66.24 34.5465 66.24C33.7625 66.24 33.0105 66.008 32.2905 65.544C31.5705 65.08 31.2105 64.28 31.2105 63.144C31.2105 61.816 31.7385 60.936 32.7945 60.504C33.8665 60.072 35.0185 59.856 36.2505 59.856C36.9385 59.856 37.5305 59.888 38.0265 59.952V59.592C38.0265 59.032 37.9465 58.488 37.7865 57.96C37.6425 57.432 37.1305 57.168 36.2505 57.168C35.9305 57.168 35.6345 57.192 35.3625 57.24C35.1065 57.272 34.8505 57.352 34.5945 57.48L34.1865 59.016L31.7145 58.752L32.1945 55.944ZM38.0265 61.584V61.44C37.7705 61.408 37.5065 61.376 37.2345 61.344C36.9785 61.312 36.7225 61.296 36.4665 61.296C35.9225 61.296 35.4425 61.4 35.0265 61.608C34.6105 61.8 34.4025 62.192 34.4025 62.784C34.4025 63.136 34.4985 63.432 34.6905 63.672C34.8825 63.912 35.2105 64.032 35.6745 64.032C36.2185 64.032 36.7225 63.84 37.1865 63.456C37.6665 63.056 37.9465 62.432 38.0265 61.584ZM53.1431 62.688C53.1431 63.888 52.6631 64.784 51.7031 65.376C50.7591 65.952 49.5271 66.24 48.0071 66.24C47.2231 66.24 46.4311 66.16 45.6311 66C44.8471 65.824 44.0951 65.552 43.3751 65.184L43.8071 62.16L46.2071 62.424V63.768C46.4951 63.864 46.7991 63.928 47.1191 63.96C47.4391 63.976 47.6791 63.984 47.8391 63.984C48.4311 63.984 48.9431 63.888 49.3751 63.696C49.8071 63.504 50.0231 63.216 50.0231 62.832C50.0231 62.368 49.6951 62.064 49.0391 61.92C48.3831 61.776 47.6231 61.632 46.7591 61.488C45.8951 61.344 45.1351 61.048 44.4791 60.6C43.8231 60.152 43.4951 59.392 43.4951 58.32C43.4951 56.992 44.0071 56.104 45.0311 55.656C46.0711 55.192 47.1431 54.96 48.2471 54.96C49.6871 54.96 51.0391 55.288 52.3031 55.944L52.5671 58.704L50.1671 58.968L49.9751 57.456C49.4471 57.28 48.8791 57.192 48.2711 57.192C47.8711 57.192 47.5271 57.28 47.2391 57.456C46.9671 57.616 46.8311 57.872 46.8311 58.224C46.8311 58.688 47.1431 59 47.7671 59.16C48.4071 59.304 49.1431 59.448 49.9751 59.592C50.8231 59.736 51.5591 60.032 52.1831 60.48C52.8231 60.912 53.1431 61.648 53.1431 62.688ZM66.6548 66H61.1108V63.672H62.1188L60.2468 61.536H58.6388V63.672H59.6228V66H54.1028V63.672H55.5428V51.84H53.9828V49.488H58.6388V59.352H60.4388L62.0228 57.528H60.7268V55.176H66.1508V57.528H64.9748L62.6468 60.168L65.7188 63.672H66.6548V66ZM73.3924 66H67.4164V63.672H68.8564V51.84H67.2964V49.488H71.9524V63.672H73.3924V66ZM75.9161 53.256V50.04H79.0121V53.256H75.9161ZM80.5721 66H74.5961V63.672H76.0361V57.528H74.4761V55.176H79.1321V63.672H80.5721V66ZM91.44 62.688C91.44 63.888 90.96 64.784 90 65.376C89.056 65.952 87.824 66.24 86.304 66.24C85.52 66.24 84.728 66.16 83.928 66C83.144 65.824 82.392 65.552 81.672 65.184L82.104 62.16L84.504 62.424V63.768C84.792 63.864 85.096 63.928 85.416 63.96C85.736 63.976 85.976 63.984 86.136 63.984C86.728 63.984 87.24 63.888 87.672 63.696C88.104 63.504 88.32 63.216 88.32 62.832C88.32 62.368 87.992 62.064 87.336 61.92C86.68 61.776 85.92 61.632 85.056 61.488C84.192 61.344 83.432 61.048 82.776 60.6C82.12 60.152 81.792 59.392 81.792 58.32C81.792 56.992 82.304 56.104 83.328 55.656C84.368 55.192 85.44 54.96 86.544 54.96C87.984 54.96 89.336 55.288 90.6 55.944L90.864 58.704L88.464 58.968L88.272 57.456C87.744 57.28 87.176 57.192 86.568 57.192C86.168 57.192 85.824 57.28 85.536 57.456C85.264 57.616 85.128 57.872 85.128 58.224C85.128 58.688 85.44 59 86.064 59.16C86.704 59.304 87.44 59.448 88.272 59.592C89.12 59.736 89.856 60.032 90.48 60.48C91.12 60.912 91.44 61.648 91.44 62.688ZM101.76 62.64C101.6 63.888 101.168 64.8 100.464 65.376C99.7596 65.952 98.8476 66.24 97.7276 66.24C96.5276 66.24 95.5516 65.944 94.7996 65.352C94.0636 64.744 93.6956 63.88 93.6956 62.76V57.384H92.1596V55.176H93.6956V51.888H96.7916V55.176H100.68V57.384H96.7916V62.232C96.7916 63.176 97.2236 63.648 98.0876 63.648C98.2796 63.648 98.5356 63.568 98.8556 63.408C99.1916 63.232 99.4076 62.744 99.5036 61.944L101.76 62.64Z" fill="#55FFAA"/>
</svg>
